<svg xmlns="http://www.w3.org/2000/svg" viewBox="0 0 512 512">
  <defs>
    <linearGradient id="bg" x1="0" y1="0" x2="1" y2="1"><stop offset="0" stop-color="#075c68"/><stop offset="1" stop-color="#062d45"/></linearGradient>
    <linearGradient id="card" x1="0" y1="0" x2="0" y2="1"><stop offset="0" stop-color="#fffdf2"/><stop offset="1" stop-color="#f1dfb4"/></linearGradient>
  </defs>
  <rect width="512" height="512" rx="112" fill="url(#bg)"/>
  <circle cx="256" cy="258" r="190" fill="#087d79"/>
  <rect x="210" y="112" width="234" height="298" rx="40" fill="url(#card)"/>
  <path d="M250 164h112M250 204h112" stroke="#d9c58f" stroke-linecap="round" stroke-width="14"/>
  <rect x="250" y="256" width="22" height="62" rx="10" fill="#0c9f81"/>
  <rect x="286" y="226" width="22" height="92" rx="10" fill="#12b88a"/>
  <rect x="322" y="192" width="22" height="126" rx="10" fill="#078374"/>
  <circle cx="165" cy="218" r="50" fill="#ffbf86"/>
  <path d="M116 212c4-51 94-65 103 4-18-12-34-18-51-11-17 8-35 9-52 7z" fill="#123e52"/>
  <path d="M92 390c2-80 47-121 83-121s81 41 83 121z" fill="#0b927c"/>
  <circle cx="374" cy="354" r="45" fill="none" stroke="#063f50" stroke-width="17"/>
  <path d="m407 388 32 32" stroke="#ffc044" stroke-linecap="round" stroke-width="22"/>
  <path d="M354 354l13 13 27-30" fill="none" stroke="#0a9f7d" stroke-linecap="round" stroke-linejoin="round" stroke-width="11"/>
</svg>
